<svg xmlns="http://www.w3.org/2000/svg" version="1.1" xmlns:xlink="http://www.w3.org/1999/xlink" xmlns:svgjs="http://svgjs.dev/svgjs" width="1000" height="133" viewBox="0 0 1000 133"><g transform="matrix(1,0,0,1,-0.6060606060606233,-0.20738494323020973)"><svg viewBox="0 0 396 53" data-background-color="#ffffff" preserveAspectRatio="xMidYMid meet" height="133" width="1000" xmlns="http://www.w3.org/2000/svg" xmlns:xlink="http://www.w3.org/1999/xlink"><defs></defs><g id="tight-bounds" transform="matrix(1,0,0,1,0.2400000000000091,0.0826421202345955)"><svg viewBox="0 0 395.52 52.83471575953081" height="52.83471575953081" width="395.52"><g><svg viewBox="0 0 506.20676932107733 67.62057739843624" height="52.83471575953081" width="395.52"><g><rect width="3.3636784681899368" height="67.62057739843624" x="98.5176498366833" y="0" fill="#31c48d" opacity="1" stroke-width="0" stroke="transparent" fill-opacity="1" class="rect-o-0" data-fill-palette-color="primary" rx="1%" id="o-0" data-palette-color="#31c48d"></rect></g><g transform="matrix(1,0,0,1,110.68676932107726,0.1682103915383948)"><svg viewBox="0 0 395.52000000000004 67.28415661535945" height="67.28415661535945" width="395.52000000000004"><g><svg viewBox="0 0 395.52000000000004 67.28415661535945" height="67.28415661535945" width="395.52000000000004"><g><svg viewBox="0 0 395.52000000000004 40.34457657747979" height="40.34457657747979" width="395.52000000000004"><g transform="matrix(1,0,0,1,0,0)"><svg width="395.52000000000004" viewBox="3.3199968338012695 -36.25 389.6200256347656 36.74000549316406" height="40.34457657747979" data-palette-color="#31c48d"><svg></svg><g class="undefined-text-0" data-fill-palette-color="primary" id="text-0"><path d="M32.32-6.59v3.2c-0.86 0.747-1.813 1.367-2.86 1.86-1.053 0.5-2.12 0.9-3.2 1.2-1.087 0.3-2.153 0.513-3.2 0.64-1.053 0.12-2.003 0.18-2.85 0.18v0c-2.387 0-4.61-0.417-6.67-1.25-2.06-0.827-3.847-2-5.36-3.52-1.513-1.527-2.703-3.367-3.57-5.52-0.86-2.16-1.29-4.557-1.29-7.19v0c0-2.02 0.253-3.897 0.76-5.63 0.5-1.733 1.2-3.313 2.1-4.74 0.893-1.42 1.96-2.683 3.2-3.79 1.233-1.107 2.583-2.04 4.05-2.8 1.467-0.753 3.02-1.327 4.66-1.72 1.647-0.387 3.33-0.58 5.05-0.58v0c0.553 0 1.18 0.023 1.88 0.07 0.7 0.047 1.45 0.123 2.25 0.23 0.8 0.107 1.627 0.247 2.48 0.42 0.853 0.167 1.72 0.38 2.6 0.64v0l-0.98 4.74-0.49 0.24c-1.693-0.78-3.273-1.317-4.74-1.61-1.473-0.293-2.75-0.44-3.83-0.44v0c-1.853 0-3.56 0.353-5.12 1.06-1.567 0.713-2.91 1.687-4.03 2.92-1.127 1.24-2.003 2.7-2.63 4.38-0.627 1.687-0.94 3.5-0.94 5.44v0c0 1.9 0.293 3.707 0.88 5.42 0.587 1.707 1.447 3.207 2.58 4.5 1.133 1.293 2.52 2.323 4.16 3.09 1.647 0.767 3.537 1.15 5.67 1.15v0c1.347 0 2.827-0.19 4.44-0.57 1.613-0.373 3.28-1.047 5-2.02zM56.05-3.81v0c1.76 0 3.357-0.367 4.79-1.1 1.433-0.733 2.657-1.73 3.67-2.99 1.02-1.26 1.807-2.737 2.36-4.43 0.553-1.693 0.83-3.5 0.83-5.42v0c0-2.033-0.307-3.917-0.92-5.65-0.607-1.733-1.447-3.237-2.52-4.51-1.073-1.267-2.343-2.257-3.81-2.97-1.467-0.72-3.053-1.08-4.76-1.08v0c-1.773 0-3.377 0.377-4.81 1.13-1.433 0.747-2.653 1.757-3.66 3.03-1.013 1.28-1.79 2.767-2.33 4.46-0.547 1.693-0.82 3.493-0.82 5.4v0c0 2.033 0.3 3.913 0.9 5.64 0.6 1.72 1.433 3.207 2.5 4.46 1.067 1.253 2.333 2.24 3.8 2.96 1.467 0.713 3.06 1.07 4.78 1.07zM55.22 0.49v0c-1.573 0-3.103-0.183-4.59-0.55-1.48-0.367-2.867-0.897-4.16-1.59-1.293-0.693-2.473-1.543-3.54-2.55-1.067-1.007-1.987-2.163-2.76-3.47-0.773-1.3-1.37-2.737-1.79-4.31-0.427-1.567-0.64-3.253-0.64-5.06v0c0-1.873 0.23-3.647 0.69-5.32 0.453-1.68 1.09-3.227 1.91-4.64 0.827-1.42 1.817-2.703 2.97-3.85 1.153-1.147 2.427-2.117 3.82-2.91 1.393-0.8 2.887-1.417 4.48-1.85 1.593-0.427 3.253-0.64 4.98-0.64v0c2.327 0 4.543 0.393 6.65 1.18 2.113 0.787 3.967 1.933 5.56 3.44 1.593 1.507 2.863 3.343 3.81 5.51 0.94 2.16 1.41 4.617 1.41 7.37v0c0 1.853-0.223 3.62-0.67 5.3-0.447 1.673-1.077 3.223-1.89 4.65-0.813 1.42-1.79 2.707-2.93 3.86-1.14 1.147-2.407 2.123-3.8 2.93-1.387 0.8-2.883 1.417-4.49 1.85-1.6 0.433-3.273 0.65-5.02 0.65zM82.37 0v-35.77h12.72c3.14 0 5.907 0.423 8.3 1.27 2.393 0.847 4.397 2.017 6.01 3.51 1.613 1.487 2.83 3.247 3.65 5.28 0.82 2.033 1.23 4.24 1.23 6.62v0c0 1.493-0.167 3.007-0.5 4.54-0.333 1.527-0.85 2.997-1.55 4.41-0.7 1.407-1.587 2.727-2.66 3.96-1.073 1.24-2.353 2.32-3.84 3.24-1.493 0.92-3.197 1.64-5.11 2.16-1.913 0.52-4.05 0.78-6.41 0.78v0zM88.43-31.47v27.17h6.69c2.18 0 4.077-0.36 5.69-1.08 1.607-0.727 2.94-1.713 4-2.96 1.06-1.247 1.85-2.71 2.37-4.39 0.52-1.687 0.78-3.497 0.78-5.43v0c0-2.12-0.3-4-0.9-5.64-0.607-1.647-1.49-3.04-2.65-4.18-1.167-1.14-2.597-2.007-4.29-2.6-1.693-0.593-3.62-0.89-5.78-0.89v0zM143.92 0h-21.29v-35.77h21.75l-0.8 4.3h-14.89v10.79h13.18l-0.78 4.18h-12.4v12.2h16.04zM152.88 0v-35.77h12.72c3.14 0 5.907 0.423 8.3 1.27 2.393 0.847 4.397 2.017 6.01 3.51 1.607 1.487 2.823 3.247 3.65 5.28 0.82 2.033 1.23 4.24 1.23 6.62v0c0 1.493-0.167 3.007-0.5 4.54-0.333 1.527-0.85 2.997-1.55 4.41-0.7 1.407-1.587 2.727-2.66 3.96-1.073 1.24-2.357 2.32-3.85 3.24-1.487 0.92-3.187 1.64-5.1 2.16-1.913 0.52-4.05 0.78-6.41 0.78v0zM158.94-31.47v27.17h6.69c2.18 0 4.073-0.36 5.68-1.08 1.613-0.727 2.95-1.713 4.01-2.96 1.053-1.247 1.843-2.71 2.37-4.39 0.52-1.687 0.78-3.497 0.78-5.43v0c0-2.12-0.303-4-0.91-5.64-0.6-1.647-1.483-3.04-2.65-4.18-1.16-1.14-2.587-2.007-4.28-2.6-1.693-0.593-3.623-0.89-5.79-0.89v0zM214.43 0h-21.29v-35.77h21.75l-0.8 4.3h-14.9v10.79h13.19l-0.78 4.18h-12.41v12.2h16.04zM227.66 0h-5.27l2.73-35.77h8.86l7.67 22.85 1.37 5.33h0.49l1.39-5.33 7.69-22.85h9.1l2.76 35.77h-6.25l-1.66-26.73-0.14-5.57h-0.49l-1.47 5.32-8.71 26.25h-5.52l-8.79-26.2-1.51-5.37h-0.49l-0.12 5.52zM294.65 0h-21.29v-35.77h21.76l-0.81 4.3h-14.89v10.79h13.18l-0.78 4.18h-12.4v12.2h16.04zM317.6-31.47v31.47h-6.08v-31.47h-11.59l0.8-4.3h28.84l-0.81 4.3zM357.23 0h-21.29v-35.77h21.75l-0.81 4.3h-14.89v10.79h13.19l-0.79 4.18h-12.4v12.2h16.04zM378.15-13.92h-5.91v13.92h-6.05v-35.77h11.01c1.953 0 3.707 0.25 5.26 0.75 1.553 0.493 2.867 1.167 3.94 2.02 1.073 0.86 1.9 1.86 2.48 3 0.58 1.133 0.87 2.353 0.87 3.66v0c0 1.153-0.213 2.233-0.64 3.24-0.42 1.013-0.973 1.947-1.66 2.8-0.68 0.853-1.45 1.627-2.31 2.32-0.853 0.693-1.703 1.29-2.55 1.79v0l10.35 16.19h-7.15zM372.24-31.47v13.38h7.35c0.6-0.327 1.153-0.733 1.66-1.22 0.507-0.487 0.943-1.037 1.31-1.65 0.367-0.613 0.647-1.267 0.84-1.96 0.193-0.7 0.29-1.427 0.29-2.18v0c0-0.893-0.153-1.73-0.46-2.51-0.313-0.78-0.773-1.457-1.38-2.03-0.613-0.567-1.38-1.013-2.3-1.34-0.92-0.327-1.99-0.49-3.21-0.49v0z" data-fill-palette-color="primary" fill="#31c48d" opacity="1"></path></g></svg></g></svg></g><g transform="matrix(1,0,0,1,0,49.15001759368381)"><svg viewBox="0 0 232.20979200000002 18.134139021675637" height="18.134139021675637" width="232.20979200000002"><g transform="matrix(1,0,0,1,0,0)"><svg width="232.20979200000002" viewBox="0.7799999713897705 -36.45000076293945 476.3900146484375 37.209999084472656" height="18.134139021675637" data-palette-color="#adbfb8"><path d="M15.04-27.08L15.04-27.08 15.04-1.86Q13.92-0.88 12.04-0.22 10.16 0.44 7.47 0.44 4.79 0.44 2.91-0.76L2.91-0.76Q0.78-2.05 0.78-4.42L0.78-4.42 0.78-29.64Q1.9-30.62 3.78-31.27 5.66-31.93 8.33-31.93 10.99-31.93 12.94-30.76L12.94-30.76Q15.04-29.42 15.04-27.08ZM43.23-17.09L43.16-12.08Q43.16-10.33 43.55-9.25 43.94-8.18 44.92-7.57L44.92-7.57Q44.94-7.45 44.94-7.1L44.94-7.1 44.94-6.67Q44.94-3.3 43-1.43 41.06 0.44 38 0.44 34.93 0.44 33.03-1.29L33.03-1.29Q30.81-3.27 30.81-7.3L30.81-7.3Q30.81-9.01 30.97-10.31 31.13-11.62 31.19-12.18 31.25-12.74 31.32-13.23 31.39-13.72 31.39-14.67 31.39-15.63 31.14-16.04 30.88-16.46 30.43-16.46 29.98-16.46 29.64-16.26L29.64-16.26 29.95-12.28Q29.51-9.81 29.51-7.06 29.51-4.3 30.76-2.03L30.76-2.03Q28.37 0.44 24.05 0.44L24.05 0.44Q21.58 0.44 19.77-0.85L19.77-0.85Q17.67-2.32 17.67-4.74L17.67-4.74 17.67-16.55Q16.23-18.58 16.23-21.55 16.23-24.51 17.67-26.68L17.67-26.68 22.02-26.68Q23.75-26.68 24.97-25.39L24.97-25.39Q23.9-24.39 23.9-23.73L23.9-23.73Q23.9-22.97 24.75-22.97L24.75-22.97Q25.83-24.83 28.04-26.05 30.25-27.27 33.05-27.27L33.05-27.27Q37.28-27.27 39.91-25.2L39.91-25.2Q43.23-22.58 43.23-17.09L43.23-17.09ZM71.8-17.09L71.72-12.08Q71.72-10.33 72.11-9.25 72.5-8.18 73.48-7.57L73.48-7.57Q73.51-7.45 73.51-7.1L73.51-7.1 73.51-6.67Q73.51-3.3 71.56-1.43 69.62 0.44 66.56 0.44 63.5 0.44 61.59-1.29L61.59-1.29Q59.37-3.27 59.37-7.3L59.37-7.3Q59.37-9.01 59.53-10.31 59.69-11.62 59.75-12.18 59.81-12.74 59.88-13.23 59.96-13.72 59.96-14.67 59.96-15.63 59.7-16.04 59.44-16.46 58.99-16.46 58.54-16.46 58.2-16.26L58.2-16.26 58.52-12.28Q58.08-9.81 58.08-7.06 58.08-4.3 59.32-2.03L59.32-2.03Q56.93 0.44 52.61 0.44L52.61 0.44Q50.14 0.44 48.33-0.85L48.33-0.85Q46.24-2.32 46.24-4.74L46.24-4.74 46.24-16.55Q44.79-18.58 44.79-21.55 44.79-24.51 46.24-26.68L46.24-26.68 50.58-26.68Q52.31-26.68 53.54-25.39L53.54-25.39Q52.46-24.39 52.46-23.73L52.46-23.73Q52.46-22.97 53.32-22.97L53.32-22.97Q54.39-24.83 56.6-26.05 58.81-27.27 61.62-27.27L61.62-27.27Q65.84-27.27 68.48-25.2L68.48-25.2Q71.8-22.58 71.8-17.09L71.8-17.09ZM86.93-13.6L86.93-13.6 86.93-9.33Q87.1-9.16 87.49-9.16 87.88-9.16 88.05-9.42 88.22-9.69 88.22-10.35L88.22-10.35 88.22-13.84Q88.22-16.19 88.03-16.96 87.83-17.72 87.3-17.72L87.3-17.72Q86.96-17.72 86.71-17.48L86.71-17.48Q86.93-15.06 86.93-13.6ZM77.8-2.78L77.8-2.78Q73.8-6.64 73.8-13.24 73.8-19.85 77.57-23.67 81.34-27.49 87.47-27.49 93.6-27.49 97.38-23.51L97.38-23.51Q101.14-19.53 101.14-13.15 101.14-6.76 97.51-3 93.89 0.76 87.66 0.76 81.44 0.76 77.8-2.78ZM114.03-11.94L114.03-11.94 114.03-11.35Q114.03-10.94 114.05-10.77L114.05-10.77Q114.35-10.64 114.61-10.64L114.61-10.64Q115.32-10.64 115.32-11.6L115.32-11.6Q115.32-14.09 115.91-20.97L115.91-20.97Q116.23-24.71 116.3-25.37L116.3-25.37Q118.59-26.9 121.8-26.9 125.01-26.9 126.77-25.2L126.77-25.2Q128.33-23.63 128.33-21.14L128.33-21.14Q128.33-19.46 127.87-17.65L127.87-17.65Q125.6-8.89 123.35-3.86L123.35-3.86Q122.16-1.25 119.72-0.29L119.72-0.29Q117.91 0.44 114.57 0.44L114.57 0.44Q112.78 0.44 111.04 0.15 109.29-0.15 108.36-0.54L108.36-0.54Q104.82-7.76 102.53-16.53L102.53-16.53Q101.77-17.29 101.24-18.65 100.7-20.02 100.7-21.48L100.7-21.48Q100.7-24.51 102.16-26.68L102.16-26.68Q102.16-26.68 108.24-26.68L108.24-26.68Q111.44-26.68 113-24.88L113-24.88Q114.17-23.51 114.52-20.9L114.52-20.9Q114.03-16.36 114.03-11.94ZM153.11-16.87L153.11-12.08Q153.11-10.33 153.5-9.25 153.89-8.18 154.87-7.57L154.87-7.57Q154.89-7.45 154.89-7.1L154.89-7.1 154.89-6.67Q154.89-3.2 152.8-1.27L152.8-1.27Q150.94 0.44 148.21 0.44L148.21 0.44Q146.35 0.44 144.81-0.44 143.27-1.32 142.61-2.98L142.61-2.98Q141.78-2.98 141.78-2.17L141.78-2.17Q141.78-1.49 142.64-0.63L142.64-0.63Q141.05 0.44 137.85 0.44L137.85 0.44Q133.34 0.44 130.64-2.01 127.94-4.47 127.94-8.87 127.94-13.28 130.8-15.7L130.8-15.7Q133.41-17.87 137.56-17.87L137.56-17.87Q138.98-17.87 140.3-17.68L140.3-17.68Q141.17-17.5 141.25-17.48L141.25-17.48Q141.32-17.72 141.32-17.9L141.32-17.9Q141.32-18.53 140.25-18.75 139.17-18.97 137.44-18.97L137.44-18.97Q133.75-18.97 131.14-17.48L131.14-17.48Q129.94-19.51 129.94-22.61L129.94-22.61Q129.94-24.37 130.38-25.22L130.38-25.22Q132.14-26.03 134.85-26.65 137.56-27.27 140.56-27.27L140.56-27.27Q146.76-27.27 149.94-24.56 153.11-21.85 153.11-16.87L153.11-16.87ZM140.44-10.89L140.44-10.89Q139.42-10.89 139.42-9.96L139.42-9.96Q139.42-9.08 140.61-9.08L140.61-9.08Q141.44-9.08 141.83-9.48 142.22-9.89 142.22-10.89L142.22-10.89Q142.22-10.89 140.44-10.89ZM157.38-8.37L157.38-15.43 158.9-15.43Q160.12-15.43 160.12-16.24L160.12-16.24Q160.12-16.33 160.07-16.53L160.07-16.53 154.6-16.53Q154.06-18.24 154.06-20.35 154.06-22.46 154.38-23.78L154.38-23.78Q155.77-24.66 158.21-26.46L158.21-26.46Q158.9-28.13 159.99-31.74L159.99-31.74Q160.14-32.23 160.34-32.69L160.34-32.69Q162.24-33.18 164.68-33.18 167.12-33.18 169.49-32.67L169.49-32.67 169.49-26.68 173.72-26.68Q175.13-24.54 175.13-21.63L175.13-21.63Q175.13-20.31 174.77-18.92 174.4-17.53 173.72-16.55L173.72-16.55 170.22-16.55 170.22-12.87Q170.22-9.74 172.84-9.74L172.84-9.74 173.89-9.74Q174.4-7.89 174.4-6.52L174.4-6.52Q174.4-3.15 172.29-1.35 170.18 0.44 166.16 0.44 162.14 0.44 159.76-1.79 157.38-4.03 157.38-8.37L157.38-8.37ZM188.75-21.97L188.75-21.97 188.75-12.3Q188.75-8.67 190.51-7.57L190.51-7.57Q190.53-7.45 190.53-7.1L190.53-7.1 190.53-6.67Q190.53-3.08 188.58-1.27L188.58-1.27Q186.77 0.44 183.76 0.44 180.74 0.44 178.79-1.27L178.79-1.27Q176.33-3.44 176.33-7.62L176.33-7.62 176.33-23.49Q176.76-23.8 177.28-24 177.79-24.19 178.35-24.49L178.35-24.49Q177.3-25.02 176.45-26.35 175.59-27.69 175.59-29.47L175.59-29.47Q175.59-32.54 177.62-34.5 179.65-36.45 182.59-36.45 185.53-36.45 187.52-34.46 189.51-32.47 189.51-29.47L189.51-29.47Q189.51-27.05 188-25.23 186.48-23.41 184.31-22.95L184.31-22.95Q184.31-22.02 185.02-22.02L185.02-22.02Q186.26-22.02 187.56-23L187.56-23Q188.53-22.24 188.75-21.97ZM203.23-11.94L203.23-11.94 203.23-11.35Q203.23-10.94 203.25-10.77L203.25-10.77Q203.54-10.64 203.81-10.64L203.81-10.64Q204.52-10.64 204.52-11.6L204.52-11.6Q204.52-14.09 205.11-20.97L205.11-20.97Q205.42-24.71 205.5-25.37L205.5-25.37Q207.79-26.9 211-26.9 214.21-26.9 215.97-25.2L215.97-25.2Q217.53-23.63 217.53-21.14L217.53-21.14Q217.53-19.46 217.07-17.65L217.07-17.65Q214.8-8.89 212.55-3.86L212.55-3.86Q211.36-1.25 208.92-0.29L208.92-0.29Q207.11 0.44 203.76 0.44L203.76 0.44Q201.98 0.44 200.24 0.15 198.49-0.15 197.56-0.54L197.56-0.54Q194.02-7.76 191.73-16.53L191.73-16.53Q190.97-17.29 190.43-18.65 189.9-20.02 189.9-21.48L189.9-21.48Q189.9-24.51 191.36-26.68L191.36-26.68Q191.36-26.68 197.44-26.68L197.44-26.68Q200.64-26.68 202.2-24.88L202.2-24.88Q203.37-23.51 203.72-20.9L203.72-20.9Q203.23-16.36 203.23-11.94ZM232.37 0.76L232.37 0.76Q225.61 0.76 221.71-3L221.71-3Q217.7-6.79 217.7-13.37 217.7-19.95 221.83-23.8L221.83-23.8Q225.64-27.39 231.47-27.39 237.31-27.39 240.83-24.18 244.36-20.97 244.36-16.28L244.36-16.28Q244.36-12.11 241.46-9.99L241.46-9.99Q238.77-7.98 234.13-7.98L234.13-7.98Q230.67-7.98 228.27-9.42L228.27-9.42Q228.08-9.28 228.08-8.89L228.08-8.89Q228.08-8.15 230.01-7.54L230.01-7.54Q231.94-6.88 234.39-6.88 236.84-6.88 238.86-7.51 240.87-8.13 242.09-8.98L242.09-8.98Q242.68-8.47 243.03-7.09 243.39-5.71 243.39-4.58 243.39-3.44 243.17-2.56L243.17-2.56Q241.26-0.95 239.26-0.27L239.26-0.27Q236.43 0.76 232.37 0.76ZM232.06-15.77L232.06-15.77Q233.28-15.77 233.28-16.7L233.28-16.7Q233.28-17.58 231.98-17.58 230.69-17.58 230.5-16.19L230.5-16.19Q231.18-15.77 232.06-15.77ZM270.48-8.89L270.48-8.89Q271.29-9.03 271.29-9.7 271.29-10.38 270.86-11.22 270.43-12.06 269.6-12.82L269.6-12.82Q267.43-14.77 263.72-14.77L263.72-14.77Q261.89-14.77 260.3-14.16L260.3-14.16Q258.62-15.01 257.61-16.87 256.61-18.73 256.61-20.87L256.61-20.87Q256.61-26.49 261.3-29.54L261.3-29.54Q265.33-32.15 271.24-32.15L271.24-32.15Q275.63-32.15 278.63-31.21 281.64-30.27 283.54-28.81L283.54-28.81Q284.1-27.2 284.1-25.46 284.1-23.73 283.64-22.31 283.18-20.9 282.3-20.04L282.3-20.04Q281.47-20.65 279.29-21.29 277.12-21.92 275.34-21.92 273.56-21.92 272.96-21.7 272.36-21.48 272.36-21.02L272.36-21.02Q272.36-20.8 272.43-20.61L272.43-20.61Q273.29-20.83 274.63-20.83L274.63-20.83Q279.39-20.83 282.39-18.58L282.39-18.58Q285.93-15.89 285.93-10.52L285.93-10.52Q285.93-5.79 282.1-2.66L282.1-2.66Q277.95 0.68 270.94 0.68L270.94 0.68Q267.09 0.68 264.25 0.11 261.42-0.46 258.74-1.9L258.74-1.9Q256.91-4.57 256.91-7.31 256.91-10.06 258.79-11.87 260.67-13.67 263.41-13.67 266.16-13.67 267.9-12.55 269.65-11.43 270.48-8.89ZM300.09-13.6L300.09-13.6 300.09-9.33Q300.26-9.16 300.65-9.16 301.04-9.16 301.22-9.42 301.39-9.69 301.39-10.35L301.39-10.35 301.39-13.84Q301.39-16.19 301.19-16.96 301-17.72 300.46-17.72L300.46-17.72Q300.12-17.72 299.87-17.48L299.87-17.48Q300.09-15.06 300.09-13.6ZM290.96-2.78L290.96-2.78Q286.96-6.64 286.96-13.24 286.96-19.85 290.73-23.67 294.5-27.49 300.63-27.49 306.76-27.49 310.54-23.51L310.54-23.51Q314.3-19.53 314.3-13.15 314.3-6.76 310.68-3 307.05 0.76 300.82 0.76 294.6 0.76 290.96-2.78ZM328.12-29.47L328.12-29.47 328.12-12.3Q328.12-8.67 329.87-7.57L329.87-7.57Q329.9-7.45 329.9-7.1L329.9-7.1 329.9-6.67Q329.9-3.17 328.13-1.37 326.36 0.44 323.11 0.44 319.86 0.44 317.96-1.37L317.96-1.37Q315.69-3.52 315.69-7.86L315.69-7.86 315.69-33.23Q318.25-34.79 321.56-34.79 324.87-34.79 326.49-33.39 328.12-31.98 328.12-29.47ZM344.06-10.64L344.06-10.64Q344.35-10.64 344.69-10.89L344.69-10.89Q344.45-11.69 344.45-13.4L344.45-13.4 344.45-25.46Q347.04-27.03 350.67-27.03L350.67-27.03Q352.72-27.03 354.27-26.48 355.82-25.93 356.65-25.02L356.65-25.02 356.65-12.3Q356.65-8.67 358.41-7.57L358.41-7.57Q358.44-7.45 358.44-7.1L358.44-7.1 358.44-6.67Q358.44-3.1 356.56-1.27L356.56-1.27Q354.85 0.44 351.84 0.44L351.84 0.44Q349.97 0.44 348.44-0.42 346.91-1.27 346.16-2.91L346.16-2.91Q345.33-2.91 345.33-2.1L345.33-2.1Q345.33-1.54 345.89-0.98L345.89-0.98Q345.11-0.34 344.01 0.05 342.91 0.44 340.77 0.44 338.64 0.44 336.61-0.44L336.61-0.44Q334.1-1.51 332.75-3.74L332.75-3.74Q331.12-6.37 331.12-10.42L331.12-10.42 331.12-16.55Q329.87-18.73 329.87-21.34L329.87-21.34Q329.87-22.68 330.21-24.12 330.56-25.56 331.31-26.68L331.31-26.68 336.68-26.68Q339.71-26.68 341.43-25.26 343.15-23.83 343.15-20.92L343.15-20.92 343.15-13.01Q343.15-10.64 344.06-10.64ZM361.61-8.37L361.61-15.43 363.12-15.43Q364.34-15.43 364.34-16.24L364.34-16.24Q364.34-16.33 364.29-16.53L364.29-16.53 358.82-16.53Q358.29-18.24 358.29-20.35 358.29-22.46 358.61-23.78L358.61-23.78Q360-24.66 362.44-26.46L362.44-26.46Q363.12-28.13 364.22-31.74L364.22-31.74Q364.37-32.23 364.56-32.69L364.56-32.69Q366.47-33.18 368.91-33.18 371.35-33.18 373.72-32.67L373.72-32.67 373.72-26.68 377.94-26.68Q379.36-24.54 379.36-21.63L379.36-21.63Q379.36-20.31 378.99-18.92 378.62-17.53 377.94-16.55L377.94-16.55 374.45-16.55 374.45-12.87Q374.45-9.74 377.06-9.74L377.06-9.74 378.11-9.74Q378.62-7.89 378.62-6.52L378.62-6.52Q378.62-3.15 376.51-1.35 374.4 0.44 370.38 0.44 366.37 0.44 363.99-1.79 361.61-4.03 361.61-8.37L361.61-8.37ZM392.98-21.97L392.98-21.97 392.98-12.3Q392.98-8.67 394.74-7.57L394.74-7.57Q394.76-7.45 394.76-7.1L394.76-7.1 394.76-6.67Q394.76-3.08 392.81-1.27L392.81-1.27Q391 0.44 387.98 0.44 384.97 0.44 383.02-1.27L383.02-1.27Q380.55-3.44 380.55-7.62L380.55-7.62 380.55-23.49Q380.99-23.8 381.5-24 382.02-24.19 382.58-24.49L382.58-24.49Q381.53-25.02 380.67-26.35 379.82-27.69 379.82-29.47L379.82-29.47Q379.82-32.54 381.84-34.5 383.87-36.45 386.81-36.45 389.75-36.45 391.74-34.46 393.73-32.47 393.73-29.47L393.73-29.47Q393.73-27.05 392.22-25.23 390.71-23.41 388.53-22.95L388.53-22.95Q388.53-22.02 389.24-22.02L389.24-22.02Q390.49-22.02 391.78-23L391.78-23Q392.76-22.24 392.98-21.97ZM408.19-13.6L408.19-13.6 408.19-9.33Q408.36-9.16 408.75-9.16 409.14-9.16 409.31-9.42 409.48-9.69 409.48-10.35L409.48-10.35 409.48-13.84Q409.48-16.19 409.28-16.96 409.09-17.72 408.55-17.72L408.55-17.72Q408.21-17.72 407.97-17.48L407.97-17.48Q408.19-15.06 408.19-13.6ZM399.05-2.78L399.05-2.78Q395.05-6.64 395.05-13.24 395.05-19.85 398.82-23.67 402.59-27.49 408.72-27.49 414.85-27.49 418.63-23.51L418.63-23.51Q422.39-19.53 422.39-13.15 422.39-6.76 418.77-3 415.14 0.76 408.92 0.76 402.69 0.76 399.05-2.78ZM449.88-17.09L449.81-12.08Q449.81-10.33 450.2-9.25 450.59-8.18 451.57-7.57L451.57-7.57Q451.59-7.45 451.59-7.1L451.59-7.1 451.59-6.67Q451.59-3.3 449.65-1.43 447.71 0.44 444.64 0.44 441.58 0.44 439.68-1.29L439.68-1.29Q437.46-3.27 437.46-7.3L437.46-7.3Q437.46-9.01 437.61-10.31 437.77-11.62 437.83-12.18 437.89-12.74 437.97-13.23 438.04-13.72 438.04-14.67 438.04-15.63 437.78-16.04 437.53-16.46 437.08-16.46 436.62-16.46 436.28-16.26L436.28-16.26 436.6-12.28Q436.16-9.81 436.16-7.06 436.16-4.3 437.41-2.03L437.41-2.03Q435.01 0.44 430.69 0.44L430.69 0.44Q428.23 0.44 426.42-0.85L426.42-0.85Q424.32-2.32 424.32-4.74L424.32-4.74 424.32-16.55Q422.88-18.58 422.88-21.55 422.88-24.51 424.32-26.68L424.32-26.68 428.67-26.68Q430.4-26.68 431.62-25.39L431.62-25.39Q430.55-24.39 430.55-23.73L430.55-23.73Q430.55-22.97 431.4-22.97L431.4-22.97Q432.47-24.83 434.68-26.05 436.89-27.27 439.7-27.27L439.7-27.27Q443.92-27.27 446.56-25.2L446.56-25.2Q449.88-22.58 449.88-17.09L449.88-17.09ZM465.6-19.14L465.6-19.14Q464.97-18.95 464.97-18.38L464.97-18.38 464.97-18.26Q464.97-18.14 464.99-18.12L464.99-18.12Q465.26-18.14 465.7-18.14L465.7-18.14 466.29-18.14Q469.07-18.14 471.5-17.3 473.93-16.46 475.47-14.6L475.47-14.6Q477.17-12.5 477.17-9.3L477.17-9.3Q477.17-4.32 473.73-1.78 470.29 0.76 464.53 0.76 458.77 0.76 455.51-1.15 452.25-3.05 452.25-6.74L452.25-6.74Q452.25-8.11 452.83-9.24 453.42-10.38 454.15-10.84L454.15-10.84Q455.49-9.72 458.05-8.9 460.6-8.08 463.45-8.08L463.45-8.08Q464.6-8.08 464.6-8.72L464.6-8.72Q464.6-9.01 464.53-9.2L464.53-9.2Q464.36-9.18 464.11-9.18L464.11-9.18 463.84-9.18Q458.67-9.18 455.57-11.23L455.57-11.23Q452.05-13.55 452.05-17.77 452.05-22 455.2-24.61L455.2-24.61Q458.69-27.49 464.8-27.49L464.8-27.49Q467.8-27.49 470.4-26.86 473-26.22 474.85-25.17L474.85-25.17Q475.32-24.17 475.32-22.22L475.32-22.22Q475.32-19.24 473.68-17.65L473.68-17.65Q472.44-18.33 470.64-18.79 468.85-19.24 467.41-19.24 465.97-19.24 465.6-19.14Z" opacity="1" transform="matrix(1,0,0,1,0,0)" fill="#adbfb8" class="undefined-text-1" data-fill-palette-color="secondary" id="text-1"></path></svg></g></svg></g></svg></g></svg></g><g transform="matrix(1,0,0,1,0,0.1682103915383948)"><svg viewBox="0 0 89.71220882047928 67.28415661535945" height="67.28415661535945" width="89.71220882047928"><g><svg xmlns="http://www.w3.org/2000/svg" xmlns:xlink="http://www.w3.org/1999/xlink" version="1.1" x="0" y="0" viewBox="14 19 80 60" enable-background="new 0 0 108.121 99.421" xml:space="preserve" width="89.71220882047928" height="67.28415661535945" class="icon-icon-0" data-fill-palette-color="accent" id="icon-0"><g fill="#096a2e" data-fill-palette-color="accent"></g><g fill="#096a2e" data-fill-palette-color="accent"></g><g fill="#096a2e" data-fill-palette-color="accent"></g><g fill="#096a2e" data-fill-palette-color="accent"></g><path d="M92 19H16c-1.104 0-2 0.896-2 2v45c0 1.104 0.896 2 2 2h76c1.104 0 2-0.896 2-2V21C94 19.896 93.104 19 92 19zM90 60H18V23h72V60z" fill="#096a2e" data-fill-palette-color="accent"></path><rect x="45" y="66" width="18" height="12" fill="#096a2e" data-fill-palette-color="accent"></rect><rect x="38" y="76" width="32" height="3" fill="#096a2e" data-fill-palette-color="accent"></rect><g fill="#096a2e" data-fill-palette-color="accent"><path d="M46.324 50.387L31.583 43.84v-2.508l14.741-7.377v4.33l-9.04 4.126 9.04 3.674V50.387z" fill="#096a2e" data-fill-palette-color="accent"></path><path d="M60.569 31.359l-7.947 21.915h-5.045l7.947-21.915H60.569z" fill="#096a2e" data-fill-palette-color="accent"></path><path d="M61.677 46.085l9.041-3.674-9.041-4.126v-4.33l14.741 7.377v2.508l-14.741 6.546V46.085z" fill="#096a2e" data-fill-palette-color="accent"></path></g></svg></g></svg></g></svg></g></svg><rect width="395.52" height="52.83471575953081" fill="none" stroke="none" visibility="hidden"></rect></g></svg></g></svg>